<svg width="94" height="94" viewBox="0 0 94 94" fill="none" xmlns="http://www.w3.org/2000/svg">
<rect width="94" height="94" rx="47" fill="#D8DAFD"/>
<path d="M59.8592 54.0222C64.8614 60.1518 67.1648 65.1752 66.0018 67.4216C65.1098 69.1261 59.5995 72.4562 55.5458 73.7318C52.2035 74.7816 47.8224 75.2331 44.2091 74.8832C39.8958 74.4655 35.5259 72.919 31.7771 70.4807C28.6268 68.4262 27.9154 67.5796 27.9154 65.8976C27.9154 62.5224 31.6304 56.6072 37.9875 49.8568C41.6008 46.03 46.6255 41.5372 47.1788 41.6614C48.2402 41.8984 56.6976 50.139 59.8592 54.0222ZM39.3876 34.3352C36.0341 31.2986 32.8273 28.2507 29.6318 27.1783C27.9154 26.6026 27.7912 26.6365 26.3911 28.0927C23.094 31.5244 20.3501 37.0896 19.5823 41.9097C18.9725 45.7704 18.8935 46.854 19.108 48.7392C19.7404 54.4399 21.0615 58.3795 23.6811 62.3869C24.7538 64.035 25.0474 64.3398 24.7312 63.5045C24.257 62.2627 24.6974 59.2713 25.8039 56.2799C27.4186 51.8774 31.8901 43.5352 39.3876 34.3352ZM74.5721 41.5033C72.6638 32.4726 66.9503 26.7945 66.1486 26.7945C65.3243 26.7945 63.416 27.5283 62.0836 28.3636C59.4527 30.0004 57.4541 31.9082 54.8232 34.3239C59.6108 40.3406 66.3631 50.06 68.7005 57.1604C69.4683 59.4971 69.7958 61.7999 69.5361 63.0642C69.3441 64.0237 69.3441 64.0237 69.6941 63.5835C70.3829 62.7143 71.9412 60.0502 72.5622 58.673C73.3978 56.8443 74.2559 54.1351 74.6624 52.0467C75.1479 49.5068 75.1028 44.0545 74.5721 41.5033ZM34.0467 22.9564C39.4328 22.6742 46.4336 26.851 46.953 26.9526C47.032 26.9638 48.1273 26.4784 49.392 25.8576C56.6072 22.3469 60.006 22.9452 61.5191 23.0129C54.3038 18.5765 44.2769 17.3687 35.1082 21.6921C32.4659 22.9452 32.3982 23.0355 34.0467 22.9564Z" fill="#3B44F6"/>
</svg>
